# xmcd CD database file
#
# Track frame offsets:
#	150
#	23104
#	44284
#	71694
#	86373
#	104877
#	128910
#	139174
#	159362
#	177362
#	189820
#	212758
#	234981
#	246090
#	262457
#	284249
#	306310
#	330686
#	345769
#
# Disc length: 4771 seconds
#
# Revision: 0
# Processed by: cddbd v1.5.1PL0 Copyright (c) Steve Scherf et al.
# Submitted via: CDex 1.51
#
DISCID=1d12a113
DTITLE=Bob Dylan - The Best
DYEAR=1900
DGENRE=Country
TTITLE0=Things have Chandged
TTITLE1=Whar Good Am I?
TTITLE2=Like a Rolling Stone
TTITLE3=lay  lady lay
TTITLE4=Under the Red Sky
TTITLE5=Love Stick
TTITLE6=Subterranean Momesick Blues
TTITLE7=Man in the Long Black Coat
TTITLE8=Handy Dandy
TTITLE9=You're Gonna Quit Me
TTITLE10=Gotta serve somebody
TTITLE11=Jack-a-roe
TTITLE12=Knockin' on heaving door
TTITLE13=Don't thinktwice, it's all right
TTITLE14=Summer Days
TTITLE15=Lust like a Woman
TTITLE16=Mr. Tambourine Man
TTITLE17=Moonlight
TTITLE18=Lone pilgrim
EXTD=
EXTT0=
EXTT1=
EXTT2=
EXTT3=
EXTT4=
EXTT5=
EXTT6=
EXTT7=
EXTT8=
EXTT9=
EXTT10=
EXTT11=
EXTT12=
EXTT13=
EXTT14=
EXTT15=
EXTT16=
EXTT17=
EXTT18=
PLAYORDER=
